<svg version="1.2" xmlns="http://www.w3.org/2000/svg" viewBox="0 0 400 400" width="400" height="400">
	<title>snigdhaos-</title>
	<style>
		.s0 { fill: #000000 } 
	</style>
	<filter id="f0">
		<feFlood flood-color="#ae3cf7" flood-opacity="1" />
		<feBlend mode="normal" in2="SourceGraphic"/>
		<feComposite in2="SourceAlpha" operator="in" />
	</filter>
	<g id="Folder 1" filter="url(#f0)">
		<path id="Layer" class="s0" d="m174.2 82.1l24.3-7.5c-4.8-14.1-15.7-27.7-21.1-33.9-10 16.9-5.5 34.7-3.2 41.4z"/>
		<path id="Layer" class="s0" d="m230.2 122.1q-0.9 1.4-1.3 3-0.3 1.6-0.2 3.2 0.2 1.6 0.9 3.1 0.7 1.5 1.8 2.7 1.1 1.1 2.3 2.1 1.2 1.1 2.5 2 1.3 1 2.7 1.8 1.4 0.8 2.8 1.5c4-10.5 10.7-31 9.5-41.1-0.9-8-3.7-20.4-5.8-29.4q-1.1-4.5-2.6-9-1.4-4.4-3.2-8.7-1.8-4.3-4-8.4-2.2-4.2-4.7-8.1-0.8-1.3-1.6-2.6-0.9-1.3-1.8-2.5-0.9-1.2-1.9-2.4-1-1.2-2.1-2.3-0.3 0.4-0.6 0.7-0.3 0.4-0.6 0.8-0.3 0.4-0.6 0.8-0.3 0.4-0.6 0.8c16.8 39.6 16.1 66.2 14.1 78.6q-0.3 1.7-0.8 3.5-0.4 1.7-1.1 3.4-0.6 1.7-1.4 3.3-0.8 1.6-1.7 3.2z"/>
		<path id="Layer" class="s0" d="m72.1 156.9q-1.9-0.6-3.5-1.5-1.7-1-3.1-2.3-1.4-1.2-2.6-2.8-1.1-1.5-1.8-3.3-1.2 0.2-2.2 0.4-0.2 0-0.3 0-0.1 0.1-0.1 0.1-0.1 0.1-0.2 0.1-0.1 0.1-0.1 0.2-0.1 0.1-0.1 0.2-0.1 0.1-0.1 0.2 0 0.1 0 0.2 0 0.1 0 0.2 0.4 1.5 0.9 3.1 0.4 1.5 0.9 3 0.5 1.5 1.1 3 0.5 1.5 1.1 3 1.2-0.2 2.4-0.5 1.1-0.2 2.3-0.6 1.1-0.4 2.2-1 1.1-0.5 2.1-1.1 0.6-0.3 1.1-0.6z"/>
		<path id="Layer" class="s0" d="m284.5 118.4c-7.3-7.7-18.8-16-26.2-20.9q0.2 1 0.3 2c1.5 12.9-6.7 36.2-10.1 44.9q4 1.8 7.6 4.3 3.5 2.5 6.6 5.5 3.1 3 5.6 6.6 2.5 3.5 4.4 7.5 0.1 0.3 0.3 0.6c1.6 3.7 2.6 7.7 2.8 11.7 0.2 4-0.4 8.1-1.6 11.9-1.3 3.8-3.3 7.4-5.8 10.5-2.6 3.1-5.7 5.7-9.3 7.7-4.5 2.5-21.1 12.5-31.1 30.4q0 0.2-0.1 0.4l-0.2 0.3q-2 3.7-3.5 7.6-1.5 3.9-2.4 8-0.9 4.1-1.2 8.2-0.3 4.2-0.1 8.4 0.1 0.7-0.2 1.4-0.2 0.7-0.7 1.3-0.5 0.5-1.2 0.9-0.6 0.3-1.4 0.3-0.1 0-0.2 0-0.7 0-1.4-0.2-0.6-0.3-1.1-0.8-0.6-0.5-0.9-1.1-0.3-0.7-0.3-1.4-0.1-1.1-0.1-2.2 0-1.1 0-2.3 0-1.1 0-2.2 0.1-1.1 0.1-2.2l-17.3 28.3c-11.2 18.3-12.5 40.4-3.5 59.3q1.3 2.8 2.9 5.5 1.7 2.6 3.7 5.1 1.9 2.4 4.2 4.6 2.3 2.2 4.8 4.1c-0.5-10.1 1-28.5 13.6-49.7 0.5-0.8 1.3-1.4 2.3-1.7 1-0.2 2-0.1 2.8 0.4 0.9 0.5 1.5 1.4 1.7 2.3 0.3 1 0.1 2-0.4 2.9q-0.6 1-1.2 2.1-0.6 1.1-1.2 2.2-0.6 1.1-1.2 2.2-0.5 1.1-1 2.2c-1 5.4-2 17.8 1.4 25.5 8.9-13.5 34.4-54.7 37.7-87 0.1-1 0.6-1.9 1.4-2.5 0.7-0.6 1.7-0.9 2.7-0.8 1 0.1 1.9 0.6 2.5 1.3 0.7 0.8 0.9 1.8 0.8 2.8-1.3 13.2-6 27.6-11.8 41.1q2.9-1.5 5.7-3.1 2.8-1.7 5.5-3.4 2.7-1.8 5.3-3.8 2.6-2 5-4.1c14.6-12.4 33.7-35.4 42-74.2 0.2-1 0.8-1.8 1.6-2.4 0.8-0.5 1.8-0.7 2.8-0.5 1 0.2 1.8 0.8 2.4 1.6 0.5 0.8 0.7 1.8 0.5 2.8q-1.6 7.1-3.5 13.6c7.9-11.1 11.1-25 9.7-41.6q-0.3-3.7-0.9-7.3-0.6-3.7-1.5-7.3-0.8-3.7-2-7.2-1.1-3.6-2.4-7.1-1.2 0.3-2.4 0.4-1.1 0.2-2.3 0.3-1.2 0.1-2.4 0.1-1.2 0.1-2.4 0.1-1.2 0-2.4-0.1-1.2 0-2.4-0.1-1.1-0.1-2.3-0.2-1.2-0.1-2.4-0.2c-1-0.2-1.9-0.7-2.5-1.5-0.6-0.7-0.9-1.7-0.8-2.7 0.2-1 0.7-1.9 1.5-2.5 0.8-0.6 1.8-0.9 2.7-0.7 12.4 1.5 21.6-0.1 26.9-4.8q0.7-0.7 1.3-1.4 0.6-0.7 1.1-1.5 0.5-0.7 0.9-1.6 0.4-0.8 0.7-1.7c-8.9-0.8-29.1-6.2-56.5-35.2z"/>
		<path id="Layer" fill-rule="evenodd" class="s0" d="m183.1 302.8c-1.6 4.5-2.8 9.2-3.5 14-0.7 4.7-0.8 9.5-0.5 14.3 0.3 4.8 1 9.5 2.3 14.2-26.7-26-3.4-86.5-3.1-87.2q0 0 0-0.1 0.1 0 0.1-0.1 0 0 0-0.1 0 0 0 0c6-21.4 5.3-36.2-2.1-45.3-8.7-10.5-24.4-10.5-35.5-9.7-8.8 0.8-16.7 3-23.6 5-9.9 2.8-17.7 5.1-25.3 2.4-8-2.9-8.7-12.3-8.4-17.7q2.3 0.3 4.6 0.6 2.3 0.2 4.6 0.4 2.3 0.1 4.6 0.2 2.3 0.1 4.6 0.1c17.2 0 39.3-2.8 52.1-11.9h0.1c0.8-0.6 1.3-1.5 1.5-2.4 0.2-1-0.1-2-0.6-2.8-0.6-0.8-1.5-1.4-2.4-1.5-1-0.2-2 0-2.8 0.6h-0.1c-18.3 13-60.2 11.2-68.3 8.7-7.1-2.2-12.4-9.2-16.3-16.8q1.3-0.3 2.5-0.6 1.3-0.4 2.5-0.9 1.2-0.4 2.4-1 1.1-0.6 2.3-1.2c4.2-2.5 6.2-5.2 5.8-8.3-0.2-1.9-1.4-4.4-6.1-5.9q-0.9-0.2-1.7-0.6-0.8-0.4-1.5-1-0.8-0.5-1.4-1.1-0.6-0.7-1.1-1.4c8.4-1.5 19-3.6 29.1-6 25.7-6.2 31.4-10.8 33.5-14 2.6-4.1 4.1-8.4 5.6-12.5 2.5-6.8 4.5-12.3 10.5-15.1l55.1-17q1.7-0.5 3.1-1.5 1.5-1 2.5-2.5 1.1-1.4 1.7-3 0.6-1.7 0.6-3.5c0.2-6.8 1.2-20.4 6.1-32.1 13.7 34.8 13 57.9 11.2 69q-0.2 1.4-0.6 2.8-0.3 1.4-0.8 2.7-0.5 1.4-1.2 2.7-0.6 1.2-1.4 2.5c-1 1.6-1.7 3.4-2.1 5.2-0.5 1.9-0.6 3.8-0.4 5.7 0.2 1.9 0.7 3.8 1.5 5.5 0.9 1.7 2 3.3 3.3 4.7q1.7 1.7 3.6 3.3 1.9 1.5 3.9 2.9 2.1 1.3 4.3 2.4 2.2 1.1 4.4 2h0.1q0 0 0 0.1 3.9 1.4 7.4 3.5 3.5 2.1 6.5 4.9 3 2.7 5.4 6 2.5 3.3 4.2 7l0.3 0.6c1.3 2.8 2 5.9 2.1 9 0.2 3.1-0.2 6.2-1.2 9.1-1 3-2.5 5.7-4.5 8.1-1.9 2.4-4.3 4.4-7.1 5.9-5 2.8-23.4 14-34.3 34l-31.8 51.8c-2.5 4.1-4.6 8.4-6.3 12.9zm-22.9-168c1.1-0.5 2.2-1.2 3.1-2.1 0.9-0.9 1.6-2 2.1-3.2 0.5-1.1 0.7-2.4 0.7-3.7 0-3.9-2.3-7.4-5.9-8.9-3.6-1.5-7.8-0.7-10.6 2.1-2.7 2.8-3.6 6.9-2.1 10.5 1.5 3.7 5.1 6 9 6 1.2 0 2.5-0.2 3.7-0.7z"/>
	</g>
</svg>