<svg version="1.2" xmlns="http://www.w3.org/2000/svg" viewBox="0 0 512 512" width="512" height="512">
	<title>Owl-svg</title>
	<style>
		.s0 { fill: #000000 } 
	</style>
	<filter id="f0">
		<feFlood flood-color="#ff0000" flood-opacity="1" />
		<feBlend mode="normal" in2="SourceGraphic"/>
		<feComposite in2="SourceAlpha" operator="in" />
	</filter>
	<g id="Layer" filter="url(#f0)">
		<path id="Layer" class="s0" d="m277.1 454.7c73.2-26.4 128.4-85.2 151.9-156.6-23.2 23-54 35.7-86.7 35.7-22.6 0-44.4-6.1-63.2-17.4l-12.2 26.6c-2 4.3-6.3 7.1-11 7.1-4.7 0-9-2.8-11-7.1l-12.2-26.6c-18.8 11.3-40.5 17.4-63.2 17.4-32.6 0-63.4-12.6-86.6-35.6 23.6 71.4 78.9 130.1 152 156.4l17.4 6.2c2.5 0.9 5.3 0.9 7.9 0z"/>
		<path id="Layer" class="s0" d="m386.3 216.7c0 32.7-26.6 59.2-59.2 59.2-9.5 0-18.5-2.2-26.5-6.2l-11.4 24.6c15.7 10 34 15.4 53.1 15.4 26.6 0 51.6-10.4 70.3-29.3 18.7-18.9 29-43.9 28.8-70.5-0.2-30-14.1-57.1-35.8-75.2l-50.7 29.8c18.7 10 31.4 29.6 31.4 52.2z"/>
		<path id="Layer" class="s0" d="m70.4 209.9c-0.1 26.6 10.1 51.6 28.8 70.5 18.8 18.9 43.7 29.3 70.3 29.3 19.1 0 37.4-5.4 53.1-15.4l-11.4-24.6c-7.9 4-16.9 6.2-26.5 6.2-32.6 0-59.2-26.5-59.2-59.2 0-22.6 12.7-42.2 31.4-52.2l-50.7-29.8c-21.6 18.1-35.5 45.2-35.8 75.2z"/>
		<path id="Layer" fill-rule="evenodd" class="s0" d="m149.6 216.7c0-19.3 15.8-35.1 35.1-35.1 6 0 11.6 1.5 16.5 4.2q3.1 1.8 5.9 3.9c7.8 6.5 12.7 16.2 12.7 27 0 19.4-15.7 35.1-35.1 35.1-19.3 0-35.1-15.7-35.1-35.1zm47.2 0c0-6.6-5.4-12-12.1-12-6.6 0-12 5.4-12 12 0 6.7 5.4 12.1 12 12.1 6.7 0 12.1-5.4 12.1-12.1z"/>
		<path id="Layer" fill-rule="evenodd" class="s0" d="m304.7 189.7q2.9-2.1 5.9-3.9c4.9-2.7 10.5-4.2 16.5-4.2 19.3 0 35.1 15.8 35.1 35.1 0 19.4-15.8 35.1-35.1 35.1-19.4 0-35.1-15.7-35.1-35.1 0-10.8 5-20.6 12.7-27zm34.5 27c0-6.6-5.4-12-12.1-12-6.7 0-12.1 5.4-12.1 12 0 6.7 5.4 12.1 12.1 12.1 6.7 0 12.1-5.4 12.1-12.1z"/>
		<path id="Layer" class="s0" d="m255.9 309.1l24.9-54.2-11.4-19.1-3.5 5.2c-2.3 3.3-6 5.3-10 5.3q0 0 0 0c-4 0-7.7-2-10-5.3l-3.5-5.2-11.4 19.1z"/>
		<path id="Layer" class="s0" d="m179.8 150c4.6 2.7 9.8 5 15.7 6.9 18.6 5.9 34.9 18.1 45.9 34.4l14.5 21.4 14.5-21.5c11-16.2 27.3-28.4 46-34.3 5.8-1.9 11-4.2 15.6-6.9l104.2-61.3c6-4 9.6-10.6 9.6-17.8 0-3.1-1.7-4.9-2.8-5.7-1.1-0.8-3.3-2-6.2-1.2l-30.6 8.6c-28.6 8-59.5 6.1-86.9-5.3l-21.6-9c-26.5-11.1-57-11.1-83.6 0l-21.6 9c-27.4 11.4-58.3 13.3-86.9 5.3l-30.5-8.6c-3-0.8-5.2 0.4-6.3 1.2-1 0.8-2.8 2.6-2.8 5.7 0 7.2 3.6 13.8 9.6 17.8z"/>
	</g>
</svg>